<svg width="306" height="345" viewBox="0 0 306 345" fill="none" xmlns="http://www.w3.org/2000/svg">
    <g clip-path="url(#clip0_107_190)">
        <path d="M0 115.074C0 72.7452 34.2502 38.4314 76.5 38.4314H229.5C271.75 38.4314 306 72.7452 306 115.074V268.358C306 310.686 271.75 345 229.5 345H76.5C34.2502 345 0 310.686 0 268.358V115.074Z"
              fill="#010101"/>
        <path d="M67.9998 183.2C67.9998 140.871 102.25 106.558 144.5 106.558H161.5C203.749 106.558 238 140.871 238 183.2V200.232C238 242.559 203.749 276.874 161.5 276.874H144.5C102.25 276.874 67.9998 242.559 67.9998 200.232V183.2Z"
              fill="white"/>
        <path d="M101.999 191.717C101.999 163.498 124.833 140.621 153 140.621C181.166 140.621 204 163.498 204 191.717C204 219.935 181.166 242.811 153 242.811C124.833 242.811 101.999 219.935 101.999 191.717Z"
              fill="black"/>
        <path d="M92.4532 54.7386L80.5516 18.3198C77.2651 8.26298 66.4633 2.77956 56.4252 6.0722C46.3871 9.36484 40.9138 20.1867 44.2004 30.2435L56.1019 66.6623C59.3885 76.719 70.1902 82.2025 80.2284 78.9098C90.2665 75.6172 95.7397 64.7953 92.4532 54.7386Z"
              fill="#010101"/>
        <path d="M264.578 54.7386L252.677 18.3198C249.39 8.26298 238.588 2.77956 228.55 6.0722C218.512 9.36484 213.039 20.1867 216.325 30.2435L228.227 66.6623C231.513 76.719 242.315 82.2025 252.353 78.9098C262.391 75.6172 267.865 64.7953 264.578 54.7386Z"
              fill="#010101"/>
        <path d="M207.203 54.7386L195.302 18.3198C192.015 8.26298 181.213 2.77956 171.175 6.0722C161.137 9.36484 155.664 20.1867 158.95 30.2435L170.852 66.6623C174.138 76.719 184.94 82.2025 194.978 78.9098C205.016 75.6172 210.49 64.7953 207.203 54.7386Z"
              fill="#010101"/>
        <path d="M149.828 54.7386L137.927 18.3198C134.64 8.26298 123.838 2.77956 113.8 6.0722C103.762 9.36484 98.2888 20.1867 101.575 30.2435L113.477 66.6623C116.763 76.719 127.565 82.2025 137.603 78.9098C147.641 75.6172 153.115 64.7953 149.828 54.7386Z"
              fill="#010101"/>
    </g>
    <defs>
        <clipPath id="clip0_107_190">
            <rect width="306" height="344.89" fill="white" transform="translate(0 0.110352)"/>
        </clipPath>
    </defs>
</svg>
